<svg width="114" height="89" viewBox="0 0 114 89" fill="none" xmlns="http://www.w3.org/2000/svg">
<path d="M93.5 49.5833C102.935 49.5833 110.583 41.9349 110.583 32.5C110.583 23.0651 102.935 15.4167 93.5 15.4167C84.0652 15.4167 76.4167 23.0651 76.4167 32.5C76.4167 41.9349 84.0652 49.5833 93.5 49.5833Z" stroke="white" stroke-width="4" stroke-linecap="round" stroke-linejoin="round"/>
<path d="M76.4167 32.5H110.583" stroke="white" stroke-width="2" stroke-linecap="round" stroke-linejoin="round"/>
<path d="M93.5 15.4167C97.773 20.0947 100.201 26.1655 100.333 32.5C100.201 38.8344 97.773 44.9053 93.5 49.5833C89.227 44.9053 86.7987 38.8344 86.6667 32.5C86.7987 26.1655 89.227 20.0947 93.5 15.4167V15.4167Z" stroke="white" stroke-width="2" stroke-linecap="round" stroke-linejoin="round"/>
<path d="M20.466 50.54C18.45 50.54 16.668 50.45 15.12 50.27C13.572 50.09 12.042 49.784 10.53 49.352C8.91 48.92 7.578 48.344 6.534 47.624C5.49 46.868 4.644 45.896 3.996 44.708C3.348 43.448 3.024 42.008 3.024 40.388V25.808C3.024 24.044 3.384 22.46 4.104 21.056C4.824 19.616 5.796 18.482 7.02 17.654C8.172 16.898 9.54 16.25 11.124 15.71C12.744 15.17 14.328 14.81 15.876 14.63C17.172 14.486 18.738 14.414 20.574 14.414C25.542 14.414 30.294 14.792 34.83 15.548V21.92C30.654 20.912 25.902 20.408 20.574 20.408C14.49 20.408 11.448 22.172 11.448 25.7V39.794C11.448 41.522 12.258 42.746 13.878 43.466C15.534 44.186 18.018 44.546 21.33 44.546C23.094 44.546 24.984 44.276 27 43.736V35.582H21.276V30.074H35.046V48.272C33.246 48.92 30.942 49.46 28.134 49.892C25.362 50.324 22.806 50.54 20.466 50.54ZM41.8542 14.954H68.5842V20.948H50.2782V28.994H66.8022V34.988H50.2782V44.006H69.1242V50H41.8542V14.954Z" fill="white"/>
<path d="M12.253 82.31C11.137 82.31 10.1037 82.2377 9.153 82.093C8.223 81.9483 7.25167 81.7003 6.239 81.349C5.14367 80.977 4.286 80.3777 3.666 79.551C3.046 78.7037 2.736 77.6807 2.736 76.482V67.678C2.736 66.686 2.953 65.7973 3.387 65.012C3.84167 64.2267 4.42033 63.6067 5.123 63.152C5.743 62.7593 6.50767 62.4287 7.417 62.16C8.32633 61.8913 9.17367 61.726 9.959 61.664C10.6823 61.602 11.447 61.571 12.253 61.571C13.2037 61.571 14.0303 61.6123 14.733 61.695C15.4357 61.757 16.221 61.9017 17.089 62.129C18.081 62.4183 18.8973 62.7697 19.538 63.183C20.1787 63.5963 20.716 64.175 21.15 64.919C21.6047 65.6837 21.832 66.6033 21.832 67.678V73.165C21.832 76.2237 20.9847 78.0113 19.29 78.528H23.692V82H17.089C16.8617 82 16.159 82.0517 14.981 82.155C13.803 82.2583 12.8937 82.31 12.253 82.31ZM12.315 78.869C12.997 78.869 13.5653 78.8483 14.02 78.807C14.4953 78.745 14.981 78.6417 15.477 78.497C15.973 78.3523 16.345 78.1147 16.593 77.784C16.8617 77.4327 16.996 76.9987 16.996 76.482V67.647C16.996 66.6963 16.6137 66.0247 15.849 65.632C15.0843 65.2187 13.896 65.012 12.284 65.012C10.672 65.012 9.48367 65.2083 8.719 65.601C7.95433 65.9937 7.572 66.6757 7.572 67.647V76.482C7.572 76.9987 7.70633 77.4327 7.975 77.784C8.24367 78.1147 8.63633 78.3523 9.153 78.497C9.649 78.6417 10.1243 78.745 10.579 78.807C11.0543 78.8483 11.633 78.869 12.315 78.869ZM34.7663 82.31C28.9589 82.31 26.0553 80.3673 26.0553 76.482V61.881H30.8913V76.482C30.8913 77.3913 31.1806 78.0217 31.7593 78.373C32.3586 78.7037 33.3816 78.869 34.8283 78.869C36.2543 78.869 37.2463 78.7037 37.8043 78.373C38.3829 78.0217 38.6723 77.3913 38.6723 76.482V61.881H43.5083V76.482C43.5083 80.3673 40.5943 82.31 34.7663 82.31ZM47.793 61.881H52.629V82H47.793V61.881ZM56.0359 79.055L66.5139 65.322H56.3459V61.881H72.4659V64.795L61.9879 78.528H72.6519V82H56.0359V79.055ZM75.9473 61.881H91.2923V65.322H80.7833V69.941H90.2693V73.382H80.7833V78.559H91.6023V82H75.9473V61.881ZM94.8682 61.881H103.92C106.607 61.881 108.55 62.2117 109.748 62.873C110.947 63.5137 111.546 64.5987 111.546 66.128V69.662C111.546 70.84 111.123 71.77 110.275 72.452C109.449 73.1133 108.343 73.537 106.958 73.723L112.786 82H107.206L101.936 74.095H99.7042V82H94.8682V61.881ZM103.858 70.902C104.995 70.902 105.77 70.7573 106.183 70.468C106.597 70.158 106.803 69.569 106.803 68.701V67.275C106.803 66.531 106.576 66.0247 106.121 65.756C105.687 65.4667 104.933 65.322 103.858 65.322H99.7042V70.902H103.858Z" fill="#DA0036"/>
</svg>
